<?xml version="1.0" encoding="UTF-8"?>
<!-- Generated by Pixelmator Pro 3.7.1 -->
<svg width="20" height="20" viewBox="0 0 20 20" xmlns="http://www.w3.org/2000/svg">
    <path id="path1" fill="white" stroke="none" d="M 16.5 3 L 3.5 3 C 2.671875 3 2 3.671875 2 4.5 L 2 15.5 C 2 16.328125 2.671875 17 3.5 17 L 16.5 17 C 17.328125 17 18 16.328125 18 15.5 L 18 4.5 C 18 3.671875 17.328125 3 16.5 3 Z M 13.8 5.2 C 13.8 5.753125 13.353125 6.2 12.8 6.2 C 12.246875 6.2 11.8 5.753125 11.8 5.2 C 11.8 4.646875 12.246875 4.2 12.8 4.2 C 13.353125 4.2 13.8 4.646875 13.8 5.2 Z M 16.799999 5.2 C 16.799999 5.753125 16.353125 6.2 15.8 6.2 C 15.246875 6.2 14.8 5.753125 14.8 5.2 C 14.8 4.646875 15.246875 4.2 15.8 4.2 C 16.353125 4.2 16.799999 4.646875 16.799999 5.2 Z"/>
</svg>
