<?xml version="1.0" encoding="UTF-8" standalone="no"?>
<!DOCTYPE svg PUBLIC "-//W3C//DTD SVG 1.1//EN" "http://www.w3.org/Graphics/SVG/1.1/DTD/svg11.dtd">
<!-- Created with Vectornator (http://vectornator.io/) -->
<svg height="20px" stroke-miterlimit="10" style="fill-rule:nonzero;clip-rule:evenodd;stroke-linecap:round;stroke-linejoin:round;" version="1.1" viewBox="0 0 20 20" width="20px" xml:space="preserve" xmlns="http://www.w3.org/2000/svg" xmlns:xlink="http://www.w3.org/1999/xlink">
<defs/>
<g>
<path d="M4.66731 3.71317L1.5239 3.71317C1.23576 3.71317 1 3.94893 1 4.23708L1 15.7629C1 16.0511 1.23576 16.2868 1.5239 16.2868L4.66731 16.2868C4.95546 16.2868 5.19122 16.0511 5.19122 15.7629L5.19122 4.23708C5.19122 3.94893 4.95546 3.71317 4.66731 3.71317ZM4.14341 6.85659L2.0478 6.85659L2.0478 5.80878L4.14341 5.80878L4.14341 6.85659ZM9.90634 3.71317L6.76292 3.71317C6.47478 3.71317 6.23902 3.94893 6.23902 4.23708L6.23902 15.7629C6.23902 16.0511 6.47478 16.2868 6.76292 16.2868L9.90634 16.2868C10.1945 16.2868 10.4302 16.0511 10.4302 15.7629L10.4302 4.23708C10.4302 3.94893 10.1945 3.71317 9.90634 3.71317ZM9.38243 6.85659L7.28683 6.85659L7.28683 5.80878L9.38243 5.80878L9.38243 6.85659Z" fill="#ffffff" fill-rule="nonzero" opacity="1" stroke="none"/>
<path d="M13.526 4.52313L10.7189 5.93766C10.4612 6.06848 10.3576 6.38281 10.4868 6.64126L15.2014 15.9987C15.3308 16.2559 15.6478 16.3607 15.905 16.2308L18.7121 14.8162C18.9693 14.6868 19.0741 14.3699 18.9442 14.1126L14.2296 4.75522C14.0988 4.49755 13.7844 4.39386 13.526 4.52313Z" fill="#ffffff" fill-rule="nonzero" opacity="1" stroke="none"/>
</g>
</svg>
