<?xml version="1.0" encoding="UTF-8"?>
<!-- Generated by Pixelmator Pro 3.7.1 -->
<svg width="20" height="20" viewBox="0 0 20 20" xmlns="http://www.w3.org/2000/svg">
    <path id="path1" fill="#575e75" stroke="none" d="M 12.25 16.25 L 3.75 16.25 C 3.40625 16.25 3.125 15.96875 3.125 15.625 C 3.125 15.28125 3.40625 15 3.75 15 L 12.25 15 C 12.59375 15 12.875 15.28125 12.875 15.625 C 12.875 15.96875 12.59375 16.25 12.25 16.25 Z M 16.25 12.5 L 3.75 12.5 C 3.40625 12.5 3.125 12.21875 3.125 11.875 C 3.125 11.53125 3.40625 11.25 3.75 11.25 L 16.25 11.25 C 16.59375 11.25 16.875 11.53125 16.875 11.875 C 16.875 12.21875 16.59375 12.5 16.25 12.5 Z M 16.25 8.75 L 3.75 8.75 C 3.40625 8.75 3.125 8.46875 3.125 8.125 C 3.125 7.78125 3.40625 7.5 3.75 7.5 L 16.25 7.5 C 16.59375 7.5 16.875 7.78125 16.875 8.125 C 16.875 8.46875 16.59375 8.75 16.25 8.75 Z M 16.25 5 L 3.75 5 C 3.40625 5 3.125 4.71875 3.125 4.375 C 3.125 4.03125 3.40625 3.75 3.75 3.75 L 16.25 3.75 C 16.59375 3.75 16.875 4.03125 16.875 4.375 C 16.875 4.71875 16.59375 5 16.25 5 Z"/>
</svg>
