<?xml version="1.0" encoding="UTF-8"?>
<!-- Generated by Pixelmator Pro 3.7.1 -->
<svg width="20" height="20" viewBox="0 0 20 20" xmlns="http://www.w3.org/2000/svg">
    <path id="path1" fill="#575e75" stroke="none" d="M 16.875 18.75 L 3.125 18.75 C 1.746094 18.75 0.625 17.628906 0.625 16.25 L 0.625 3.75 C 0.625 2.371094 1.746094 1.25 3.125 1.25 L 16.875 1.25 C 18.253906 1.25 19.375 2.371094 19.375 3.75 L 19.375 16.25 C 19.375 17.628906 18.253906 18.75 16.875 18.75 Z M 3.125 2.5 C 2.4375 2.5 1.875 3.0625 1.875 3.75 L 1.875 16.25 C 1.875 16.9375 2.4375 17.5 3.125 17.5 L 16.875 17.5 C 17.5625 17.5 18.125 16.9375 18.125 16.25 L 18.125 3.75 C 18.125 3.0625 17.5625 2.5 16.875 2.5 L 3.125 2.5 Z"/>
    <path id="path2" fill="#575e75" stroke="none" d="M 3.75 10 C 3.566406 10 3.386719 9.917969 3.261719 9.765625 C 3.046875 9.496094 3.089844 9.101563 3.359375 8.886719 L 5.875 6.875 L 3.359375 4.863281 C 3.089844 4.648438 3.046875 4.253906 3.261719 3.984375 C 3.476563 3.714844 3.871094 3.671875 4.140625 3.886719 L 7.265625 6.386719 C 7.414063 6.503906 7.5 6.683594 7.5 6.875 C 7.5 7.066406 7.414063 7.246094 7.265625 7.363281 L 4.140625 9.863281 C 4.023438 9.957031 3.886719 10 3.75 10 Z M 10 10 L 7.5 10 C 7.15625 10 6.875 9.71875 6.875 9.375 C 6.875 9.03125 7.15625 8.75 7.5 8.75 L 10 8.75 C 10.34375 8.75 10.625 9.03125 10.625 9.375 C 10.625 9.71875 10.34375 10 10 10 Z"/>
</svg>
