<?xml version="1.0" encoding="UTF-8"?>
<!-- Generated by Pixelmator Pro 3.7.1 -->
<svg width="25" height="20" viewBox="0 0 25 20" xmlns="http://www.w3.org/2000/svg">
    <path id="path1" fill="#575e75" stroke="none" d="M 19.515625 18.90625 L 4.660156 18.90625 C 4.625 18.90625 4.585938 18.90625 4.550781 18.902344 C 4.515625 18.898438 4.476563 18.894531 4.441406 18.886719 C 4.40625 18.878906 4.371094 18.871094 4.335938 18.859375 C 4.300781 18.847656 4.265625 18.835938 4.234375 18.820313 C 4.199219 18.804688 4.167969 18.789063 4.136719 18.773438 C 4.105469 18.757813 4.074219 18.738281 4.042969 18.714844 C 4.011719 18.695313 3.984375 18.671875 3.957031 18.648438 C 3.929688 18.625 3.902344 18.601563 3.878906 18.574219 C 3.855469 18.550781 3.828125 18.523438 3.808594 18.492188 C 3.785156 18.464844 3.765625 18.433594 3.746094 18.40625 C 3.726563 18.375 3.707031 18.34375 3.691406 18.3125 C 3.675781 18.28125 3.660156 18.246094 3.644531 18.214844 C 3.628906 18.179688 3.617188 18.148438 3.609375 18.113281 C 3.597656 18.078125 3.589844 18.042969 3.582031 18.007813 C 3.574219 17.972656 3.570313 17.9375 3.566406 17.902344 C 3.5625 17.867188 3.5625 17.828125 3.5625 17.792969 L 3.5625 2.644531 C 3.5625 2.335938 3.8125 2.089844 4.117188 2.089844 C 4.421875 2.089844 4.664063 2.339844 4.664063 2.644531 L 4.664063 17.789063 L 4.132813 17.953125 L 4.664063 17.792969 L 19.511719 17.792969 C 19.820313 17.792969 20.066406 18.042969 20.066406 18.347656 C 20.066406 18.652344 19.820313 18.90625 19.515625 18.90625 Z"/>
    <g id="g1">
        <path id="--2" fill="#575e75" stroke="none" d="M 8.591666 12.3375 C 8.449661 12.3375 8.307656 12.282084 8.200287 12.174713 C 7.985547 11.959974 7.985547 11.606692 8.200287 11.391953 L 11.80237 7.78987 C 12.017109 7.57513 12.370391 7.57513 12.58513 7.78987 C 12.79987 8.004609 12.79987 8.357891 12.58513 8.57263 L 8.983047 12.174713 C 8.875677 12.282084 8.733672 12.3375 8.591666 12.3375 Z M 17.735416 10.952084 C 17.593412 10.952084 17.451406 10.896667 17.344036 10.789297 C 17.129297 10.574557 17.129297 10.221276 17.344036 10.006536 L 20.391953 6.95862 C 20.606693 6.74388 20.959974 6.74388 21.174713 6.95862 C 21.389454 7.173359 21.389454 7.526641 21.174713 7.74138 L 18.126797 10.789297 C 18.019426 10.896667 17.877422 10.952084 17.735416 10.952084 Z M 16.072916 10.952084 C 15.930911 10.952084 15.788906 10.896667 15.681537 10.789297 L 13.464869 8.57263 C 13.250131 8.357891 13.250131 8.004609 13.464869 7.78987 C 13.679609 7.57513 14.03289 7.57513 14.24763 7.78987 L 16.464296 10.006536 C 16.679037 10.221276 16.679037 10.574557 16.464296 10.789297 C 16.356928 10.896667 16.214922 10.952084 16.072916 10.952084 Z"/>
        <path id="-" fill="#575e75" stroke="none" d="M 21.614584 7.904166 C 20.84914 7.904166 20.229166 7.284193 20.229166 6.51875 C 20.229166 5.753307 20.84914 5.133333 21.614584 5.133333 C 22.380026 5.133333 23 5.753307 23 6.51875 C 23 7.284193 22.380026 7.904166 21.614584 7.904166 Z M 21.614584 6.241667 C 21.462187 6.241667 21.3375 6.366354 21.3375 6.51875 C 21.3375 6.671145 21.462187 6.795834 21.614584 6.795834 C 21.766979 6.795834 21.891666 6.671145 21.891666 6.51875 C 21.891666 6.366354 21.766979 6.241667 21.614584 6.241667 Z M 16.904167 12.614584 C 16.138723 12.614584 15.51875 11.99461 15.51875 11.229167 C 15.51875 10.463724 16.138723 9.84375 16.904167 9.84375 C 17.669609 9.84375 18.289583 10.463724 18.289583 11.229167 C 18.289583 11.99461 17.669609 12.614584 16.904167 12.614584 Z M 16.904167 10.952084 C 16.75177 10.952084 16.627083 11.076771 16.627083 11.229167 C 16.627083 11.381562 16.75177 11.50625 16.904167 11.50625 C 17.056562 11.50625 17.18125 11.381562 17.18125 11.229167 C 17.18125 11.076771 17.056562 10.952084 16.904167 10.952084 Z M 13.025 8.735416 C 12.259558 8.735416 11.639584 8.115442 11.639584 7.35 C 11.639584 6.584558 12.259558 5.964583 13.025 5.964583 C 13.790442 5.964583 14.410417 6.584558 14.410417 7.35 C 14.410417 8.115442 13.790442 8.735416 13.025 8.735416 Z M 13.025 7.072917 C 12.872604 7.072917 12.747916 7.197604 12.747916 7.35 C 12.747916 7.502396 12.872604 7.627084 13.025 7.627084 C 13.177396 7.627084 13.302083 7.502396 13.302083 7.35 C 13.302083 7.197604 13.177396 7.072917 13.025 7.072917 Z M 7.760417 14 C 6.994974 14 6.375 13.380026 6.375 12.614584 C 6.375 11.84914 6.994974 11.229167 7.760417 11.229167 C 8.52586 11.229167 9.145833 11.84914 9.145833 12.614584 C 9.145833 13.380026 8.52586 14 7.760417 14 Z M 7.760417 12.3375 C 7.608021 12.3375 7.483333 12.462187 7.483333 12.614584 C 7.483333 12.766979 7.608021 12.891666 7.760417 12.891666 C 7.912813 12.891666 8.0375 12.766979 8.0375 12.614584 C 8.0375 12.462187 7.912813 12.3375 7.760417 12.3375 Z"/>
    </g>
</svg>
