<?xml version="1.0" standalone="no"?><!DOCTYPE svg PUBLIC "-//W3C//DTD SVG 1.1//EN" "http://www.w3.org/Graphics/SVG/1.1/DTD/svg11.dtd"><svg t="1765878449846" class="icon" viewBox="0 0 1024 1024" version="1.1" xmlns="http://www.w3.org/2000/svg" p-id="15654" xmlns:xlink="http://www.w3.org/1999/xlink" width="20" height="20"><path fill="#575e75" stroke="none" d="M900.2 928H123.8c-3.8 0-7.8-0.2-11.6-0.6-3.8-0.4-7.6-1-11.4-1.6-3.8-0.8-7.6-1.8-11.2-2.8-3.6-1.2-7.4-2.4-11-4-3.6-1.4-7-3.2-10.4-5-3.4-1.8-6.8-3.8-10-6s-6.4-4.4-9.4-7c-3-2.4-5.8-5-8.6-7.8s-5.4-5.6-7.8-8.6c-2.4-3-4.8-6.2-6.8-9.4-2.2-3.2-4.2-6.6-6-10-1.8-3.4-3.4-7-5-10.4-1.4-3.6-2.8-7.2-4-11-1.2-3.8-2-7.4-2.8-11.2-0.8-3.8-1.4-7.6-1.8-11.4-0.4-3.8-0.6-7.8-0.6-11.6V236.2c0-3.8 0.2-7.8 0.6-11.6 0.4-3.8 1-7.6 1.8-11.4 0.8-3.8 1.6-7.6 2.8-11.2 1.2-3.8 2.4-7.4 4-11 1.4-3.6 3.2-7 5-10.4 1.8-3.4 3.8-6.8 6-10s4.4-6.4 7-9.4c2.4-3 5-5.8 7.8-8.6s5.6-5.4 8.6-7.8c3-2.4 6.2-4.8 9.4-7s6.6-4.2 10-6c3.4-1.8 7-3.4 10.4-5 3.6-1.4 7.2-2.8 11-4 3.8-1.2 7.4-2 11.2-2.8 3.8-0.8 7.6-1.4 11.4-1.8 3.8-0.4 7.8-0.6 11.6-0.6h160c11.6 0 23.2 1.8 34.2 5 11.2 3.4 21.6 8.4 31.2 14.8l58.8 39.2c4.2 2.8 8.6 4.8 13.4 6.4 4.8 1.4 9.6 2.2 14.6 2.2H900c3.8 0 7.8 0.2 11.6 0.6 3.8 0.4 7.6 1 11.4 1.8 3.8 0.8 7.6 1.6 11.2 2.8 3.6 1.2 7.4 2.4 11 4 3.6 1.4 7 3.2 10.4 5 3.4 1.8 6.8 3.8 10 6s6.4 4.4 9.4 7c3 2.4 5.8 5 8.6 7.8s5.4 5.6 7.8 8.6c2.4 3 4.8 6.2 7 9.4s4.2 6.6 6 10c1.8 3.4 3.4 7 5 10.4 1.4 3.6 2.8 7.2 4 10.8 1.2 3.8 2 7.4 2.8 11.2 0.8 3.8 1.4 7.6 1.6 11.4 0.4 3.8 0.6 7.8 0.6 11.6v506.2c0 3.8-0.2 7.8-0.6 11.6-0.4 3.8-1 7.6-1.6 11.4-0.8 3.8-1.6 7.6-2.8 11.2-1.2 3.8-2.4 7.4-4 11-1.4 3.6-3.2 7-5 10.4-1.8 3.4-3.8 6.8-6 10s-4.4 6.4-7 9.4c-2.4 3-5 5.8-7.8 8.6s-5.6 5.4-8.6 7.8c-3 2.4-6.2 4.8-9.4 7s-6.6 4.2-10 6c-3.4 1.8-7 3.4-10.4 5-3.6 1.4-7.2 2.8-11 4-3.8 1.2-7.4 2-11.2 2.8-3.8 0.8-7.6 1.4-11.4 1.6-3.8 0.2-7.6 0.4-11.4 0.4zM73.2 421.8V810c0 1.6 0 3.4 0.2 5s0.4 3.2 0.8 5l1.2 4.8c0.4 1.6 1 3.2 1.6 4.6 0.6 1.6 1.4 3 2.2 4.4 0.8 1.4 1.6 3 2.6 4.2 1 1.4 2 2.8 3 4 1 1.2 2.2 2.6 3.4 3.6 1.2 1.2 2.4 2.2 3.6 3.4 1.2 1 2.6 2 4 3s2.8 1.8 4.2 2.6c1.4 0.8 3 1.4 4.4 2.2 1.6 0.6 3 1.2 4.6 1.6l4.8 1.2c1.6 0.4 3.2 0.6 5 0.8 1.6 0.2 3.4 0.2 5 0.2H900c1.6 0 3.4 0 5-0.2s3.4-0.4 5-0.8l4.8-1.2c1.6-0.4 3.2-1 4.6-1.6 1.6-0.6 3-1.4 4.6-2.2 1.4-0.8 2.8-1.6 4.2-2.6 1.4-1 2.8-2 4-3 1.2-1 2.6-2.2 3.6-3.4 1.2-1.2 2.2-2.4 3.4-3.6 1-1.2 2-2.6 3-4s1.8-2.8 2.6-4.2c0.8-1.4 1.4-3 2.2-4.4 0.6-1.6 1.2-3.2 1.6-4.6l1.2-4.8c0.4-1.6 0.6-3.2 0.8-5 0.2-1.6 0.2-3.2 0.2-5V421.8H73.2z m0-67.6h877.6v-50.6c0-1.6 0-3.4-0.2-5s-0.4-3.4-0.8-5l-1.2-4.8c-0.4-1.6-1-3.2-1.6-4.6-0.6-1.6-1.4-3-2.2-4.6-0.8-1.4-1.6-2.8-2.6-4.2-1-1.4-2-2.8-3-4-1-1.2-2.2-2.6-3.4-3.6-1.2-1.2-2.4-2.2-3.6-3.4-1.2-1-2.6-2-4-3s-2.8-1.8-4.2-2.6c-1.4-0.8-3-1.4-4.4-2.2-1.6-0.6-3-1.2-4.6-1.6l-4.8-1.2c-1.6-0.4-3.2-0.6-5-0.8-1.6-0.2-3.4-0.2-5-0.2h-464c-11.6 0-23.2-1.8-34.2-5-11.2-3.4-21.6-8.4-31.2-14.8L312 194c-4.2-2.8-8.6-4.8-13.4-6.4-4.8-1.4-9.6-2.2-14.6-2.2H124c-1.6 0-3.4 0-5 0.2s-3.2 0.4-5 0.8l-4.8 1.2c-1.6 0.4-3.2 1-4.6 1.6-1.6 0.6-3 1.4-4.4 2.2-1.4 0.8-2.8 1.6-4.2 2.6-1.4 1-2.8 2-4 3-1.2 1-2.6 2.2-3.6 3.4-1.2 1.2-2.2 2.4-3.4 3.6-1 1.2-2 2.6-3 4s-1.8 2.8-2.6 4.2c-0.8 1.4-1.4 3-2.2 4.4-0.6 1.6-1.2 3-1.6 4.6l-1.2 4.8c-0.4 1.6-0.6 3.2-0.8 5-0.2 1.6-0.2 3.4-0.2 5v118.2z" p-id="15655"></path></svg>
