<?xml version="1.0" encoding="UTF-8"?>
<!-- Generated by Pixelmator Pro 3.7.1 -->
<svg width="20" height="20" viewBox="0 0 20 20" xmlns="http://www.w3.org/2000/svg">
    <path id="path1" fill="#ffffff" stroke="none" d="M 3.17119 6.261429 C 3.641905 6.271428 4.014048 6.611429 4.002619 7.020952 L 3.150238 7.003096 L 2.298095 6.985 C 2.309524 6.575476 2.700476 6.251667 3.17119 6.261429 Z M 3.150476 7.003096 L 2.298095 6.985 L 2.296905 7.027143 L 2.293809 7.146904 C 2.291429 7.25119 2.287619 7.402381 2.283809 7.590953 C 2.27328 8.092257 2.265344 8.593613 2.26 9.095 C 2.247143 10.29119 2.246905 11.789286 2.298572 12.965239 C 2.354762 14.251666 2.506429 15.916667 2.631428 17.156666 C 2.772619 18.556667 4.124286 19.612858 5.726666 19.612858 L 14.124523 19.612858 C 15.726905 19.612858 17.078571 18.556667 17.219761 17.156666 C 17.345001 15.916667 17.496429 14.251666 17.552856 12.965239 C 17.604286 11.789047 17.604048 10.29119 17.591429 9.095 C 17.584435 8.445566 17.573084 7.796186 17.557381 7.146904 L 17.554285 7.027143 L 17.553097 6.985714 C 17.541668 6.576191 17.150715 6.251429 16.680239 6.261429 C 16.209524 6.271428 15.837143 6.611429 15.848571 7.020952 L 16.391666 7.009523 L 15.848809 7.020952 L 15.849762 7.061428 L 15.852619 7.179048 C 15.868111 7.822141 15.879302 8.465329 15.88619 9.108571 C 15.899048 10.300476 15.898809 11.769524 15.849048 12.90881 C 15.794286 14.15619 15.645952 15.790238 15.521429 17.026905 C 15.458572 17.649761 14.856191 18.129286 14.124523 18.129286 L 5.726905 18.129286 C 4.995238 18.129286 4.392857 17.649761 4.33 17.026905 C 4.205238 15.790238 4.056905 14.15619 4.002381 12.90881 C 3.952381 11.769524 3.952381 10.300476 3.965 9.108571 C 3.971869 8.465329 3.983059 7.82214 3.998571 7.179048 L 4.001667 7.061191 L 4.002619 7.020952 L 3.150238 7.003096 Z M 1.11619 4.035714 C 1.11619 3.62619 1.497857 3.294287 1.968571 3.294287 L 17.882618 3.294287 C 18.353573 3.294287 18.735001 3.62619 18.735001 4.035953 C 18.735001 4.445477 18.353573 4.777619 17.882618 4.777619 L 1.968571 4.777619 C 1.497857 4.777619 1.11619 4.445714 1.11619 4.035953 Z"/>
    <path id="path2" fill="#ffffff" stroke="none" d="M 5.803333 1.767143 C 6.346667 0.880714 7.407143 0.327143 8.561666 0.327143 L 11.289762 0.327143 C 12.444048 0.327143 13.504524 0.880714 14.047857 1.767143 L 15.224762 3.686905 C 15.446191 4.048333 15.289048 4.497619 14.873571 4.690476 C 14.458333 4.883333 13.941904 4.746428 13.720238 4.385 L 12.543334 2.465239 C 12.296429 2.062382 11.814524 1.810476 11.289762 1.810476 L 8.561666 1.810476 C 8.036905 1.810476 7.554762 2.062382 7.307858 2.465239 L 6.130952 4.385 C 5.909524 4.746428 5.392857 4.883096 4.977619 4.690476 C 4.562143 4.497619 4.405 4.048333 4.626667 3.686905 L 5.803333 1.767143 Z"/>
    <path id="-" fill="#ffffff" stroke="none" d="M 11.399436 11.403637 L 13.206529 13.210728 C 13.453194 13.440573 13.554731 13.786731 13.471306 14.113401 C 13.387878 14.440071 13.132798 14.695152 12.806129 14.778578 C 12.479458 14.862003 12.133299 14.760468 11.903454 14.513802 L 10.096363 12.706711 L 8.289271 14.513802 C 8.059426 14.760468 7.713269 14.862003 7.3866 14.778578 C 7.059931 14.695152 6.804848 14.440071 6.721422 14.113401 C 6.637997 13.786731 6.739533 13.440573 6.986199 13.210728 L 8.79329 11.403637 L 6.986199 9.596546 C 6.739533 9.366701 6.637997 9.020543 6.721422 8.693872 C 6.804848 8.367203 7.059931 8.112122 7.3866 8.028695 C 7.713269 7.94527 8.059426 8.046806 8.289271 8.293472 L 10.096363 10.100564 L 11.903454 8.293472 C 12.133299 8.046806 12.479458 7.94527 12.806129 8.028695 C 13.132798 8.112122 13.387878 8.367203 13.471306 8.693872 C 13.554731 9.020543 13.453194 9.366701 13.206529 9.596546 Z"/>
</svg>
